<svg xmlns="http://www.w3.org/2000/svg" width="675.4" height="449.7" viewBox="0 0 675.4 449.7">
  <g id="Accessoires" transform="translate(-100 -2068.6)">
    <g id="Groupe_2" data-name="Groupe 2">
      <path id="Tracé_23756" data-name="Tracé 23756" d="M775.4,2518.3H699.8l-.6-1.5c-1.1-2.6-3-7-6.1-14.5-2.6-6.3-5.9-14.1-10.7-25.5-4.2-10-8.9-21.2-13.9-33.3-4.8-11.7-9.8-23.8-15-36.4h-142l-46.3,111.2H389.6l1.6-3.5c1.6-3.7,5.5-12.8,11-25.7,6-14.2,13.3-31.3,21.7-51,8.7-20.3,18.3-42.8,28.9-67.7,10.7-25.1,21.7-50.7,32.7-76.2,10.7-24.8,21.7-50.4,32.7-76.1,9.9-23.3,19.7-46.1,29-67.7,8.7-20.3,16-37.5,21.7-50.9,6.1-14.5,9.5-22.4,11-25.8l2.3-5.1,2.3,5.1c1.5,3.5,5.3,12.1,11.3,25.8,6.2,14.2,13.6,31.3,22,51,8.7,20.3,18.3,42.8,29,67.7,10.9,25.6,21.9,51.2,32.7,76.1,11,25.4,22,51,32.7,76.2,9.9,23.2,19.6,46,28.9,67.7,8.4,19.7,15.7,36.8,21.7,51,5.9,13.9,9.5,22.3,11,25.7Zm-72.2-5h64.6c-1.9-4.5-5.1-11.8-9.5-22.3-6-14.2-13.3-31.3-21.7-50.9-9.3-21.8-19.1-44.6-29-67.7-10.7-25.1-21.7-50.7-32.7-76.1-10.8-24.9-21.8-50.5-32.7-76.2-10.6-24.9-20.3-47.5-28.9-67.7-8.4-19.6-15.8-36.7-22-50.9-4-9.1-7-15.9-9-20.5-1.9,4.5-4.8,11.2-8.7,20.5-5.7,13.5-13,30.6-21.7,51-9.3,21.7-19,44.5-28.9,67.7-11,25.7-22,51.3-32.7,76.2-11,25.4-22,51.1-32.7,76.1q-15.9,37.35-29,67.7c-8.4,19.6-15.7,36.8-21.7,50.9-4.2,9.9-7.4,17.6-9.5,22.3H462l46.3-111.2H657l.6,1.5c5.4,13.1,10.6,25.8,15.6,37.9s9.7,23.3,13.9,33.3c4.8,11.4,8.1,19.2,10.7,25.5C700.3,2506.4,702,2510.6,703.2,2513.3Zm-69.1-165.8H530.4L574,2243.6c.2-.8.7-2.6,2.4-7.9a130.87,130.87,0,0,0,3.4-12.8h4.9a112.808,112.808,0,0,0,3.4,12.8,53.121,53.121,0,0,0,2.5,7l.2.2.2.5Zm-96.1-5h88.6l-40.1-97c-.5-.7-1.2-2.5-3.1-8.3-.4-1.2-.8-2.4-1.1-3.5-.3,1.2-.7,2.3-1.1,3.6-1.7,5.4-2.1,6.8-2.2,7.2v.3l-.2.5Zm41-98.3Z"/>
    </g>
    <g id="Groupe_3" data-name="Groupe 3">
      <path id="Tracé_23757" data-name="Tracé 23757" d="M179.3,2196.3c-.3-.7-.8-1.9-1.6-3.7-.7-1.8-1.7-4-2.8-6.6s-2.3-5.4-3.6-8.6c-1.3-3.1-2.6-6.4-4-9.8H129.9L118,2196.2H100c.4-.9,1.3-3.1,2.8-6.6s3.4-7.9,5.6-13.1,4.7-11,7.4-17.4,5.5-12.9,8.4-19.6,5.7-13.2,8.4-19.6,5.2-12.2,7.5-17.4c2.2-5.2,4.1-9.6,5.6-13.1s2.4-5.7,2.8-6.6c.4.9,1.4,3.1,2.9,6.6s3.4,7.9,5.7,13.1q3.3,7.8,7.5,17.4c2.7,6.4,5.5,12.9,8.4,19.6s5.7,13.2,8.4,19.6,5.2,12.2,7.5,17.4c2.2,5.2,4.1,9.6,5.6,13.1s2.4,5.7,2.8,6.6h-18Zm-43.1-44h24.7l-10.7-25.9a15.661,15.661,0,0,1-.7-2,28.949,28.949,0,0,1-.9-3.4c-.2,1-.5,2.1-.9,3.4a17.868,17.868,0,0,0-.6,2Z"/>
      <path id="Tracé_23758" data-name="Tracé 23758" d="M246.9,2179.7c1.5,1.9,2.9,3.7,4.3,5.4s2.8,3.5,4.3,5.3a34.054,34.054,0,0,1-9.7,5.4,33.482,33.482,0,0,1-11.5,2,34.145,34.145,0,0,1-13.2-2.6,31.557,31.557,0,0,1-10.7-7.2,34.74,34.74,0,0,1-7.2-10.7,31.872,31.872,0,0,1-2.7-13,31.068,31.068,0,0,1,2.7-12.9,36.811,36.811,0,0,1,7.2-10.6,34.739,34.739,0,0,1,10.7-7.2,35,35,0,0,1,24.9-.6,39.547,39.547,0,0,1,9.9,5.4l-9.1,10.6a19.893,19.893,0,0,0-12.5-4,20.133,20.133,0,0,0-14.1,5.5,17.546,17.546,0,0,0-4,6,21.1,21.1,0,0,0-1.4,7.7,20.422,20.422,0,0,0,1.4,7.5,19.414,19.414,0,0,0,4,6.2,17.914,17.914,0,0,0,6.2,4.2,20.222,20.222,0,0,0,7.9,1.5A17.363,17.363,0,0,0,246.9,2179.7Z"/>
      <path id="Tracé_23759" data-name="Tracé 23759" d="M308,2179.7c1.5,1.9,2.9,3.7,4.3,5.4s2.8,3.5,4.3,5.3a34.054,34.054,0,0,1-9.7,5.4,33.482,33.482,0,0,1-11.5,2,34.145,34.145,0,0,1-13.2-2.6,31.557,31.557,0,0,1-10.7-7.2,34.74,34.74,0,0,1-7.2-10.7,31.872,31.872,0,0,1-2.7-13,31.068,31.068,0,0,1,2.7-12.9,36.811,36.811,0,0,1,7.2-10.6,34.739,34.739,0,0,1,10.7-7.2,35,35,0,0,1,24.9-.6,39.547,39.547,0,0,1,9.9,5.4l-9.1,10.6a19.893,19.893,0,0,0-12.5-4,20.133,20.133,0,0,0-14.1,5.5,17.546,17.546,0,0,0-4,6,21.1,21.1,0,0,0-1.4,7.7,20.422,20.422,0,0,0,1.4,7.5,19.414,19.414,0,0,0,4,6.2,17.914,17.914,0,0,0,6.2,4.2,20.222,20.222,0,0,0,7.9,1.5A17.363,17.363,0,0,0,308,2179.7Z"/>
      <path id="Tracé_23760" data-name="Tracé 23760" d="M381.2,2189a33.548,33.548,0,0,1-11.2,6.6,38.662,38.662,0,0,1-13.4,2.4,34.145,34.145,0,0,1-13.2-2.6,31.557,31.557,0,0,1-10.7-7.2,35.5,35.5,0,0,1-7.2-10.6,32.166,32.166,0,0,1,0-25.8,36.811,36.811,0,0,1,7.2-10.6,35.5,35.5,0,0,1,10.6-7.2,32.417,32.417,0,0,1,12.7-2.6,29.22,29.22,0,0,1,18.8,6.5,34.339,34.339,0,0,1,11.5,17.1c-3,1.1-6.4,2.4-10.4,3.9-3.9,1.5-8,3.2-12.3,4.8-4.3,1.7-8.5,3.4-12.8,5.1s-8.2,3.3-11.8,4.7a19.162,19.162,0,0,0,7,7.4,18.522,18.522,0,0,0,10.1,2.8,23.794,23.794,0,0,0,7.8-1.4,18.016,18.016,0,0,0,6.5-3.8Zm-12.6-37.3a10.588,10.588,0,0,0-5.4-4.8,18.2,18.2,0,0,0-7-1.6,17.876,17.876,0,0,0-7.6,1.6,17.51,17.51,0,0,0-6.1,4.2,19.106,19.106,0,0,0-4,6,16.49,16.49,0,0,0-1.5,6.9v.6c2.5-1,5.1-2.1,8-3.2,2.8-1.1,5.7-2.3,8.5-3.5s5.5-2.3,8.1-3.4S366.6,2152.5,368.6,2151.7Z"/>
      <path id="Tracé_23761" data-name="Tracé 23761" d="M433.5,2138.6c-.6.9-1.3,1.9-2.2,3.1-.8,1.1-1.7,2.2-2.5,3.2s-1.7,2.2-2.8,3.7a17.066,17.066,0,0,0-2.9-1.6,18.171,18.171,0,0,0-3.3-1.1,15.825,15.825,0,0,0-3.8-.5,10.383,10.383,0,0,0-4.4,1,3.856,3.856,0,0,0-2.3,3.9,5.307,5.307,0,0,0,2,4.2,22.913,22.913,0,0,0,4.9,3.1c1.9.9,4.1,1.9,6.4,2.9a28.891,28.891,0,0,1,6.4,3.7,20.392,20.392,0,0,1,4.9,5.6,16.185,16.185,0,0,1,2,8.3,18.6,18.6,0,0,1-1.6,7.9,17.021,17.021,0,0,1-4.5,6.1,21.228,21.228,0,0,1-6.9,4,25.923,25.923,0,0,1-9.1,1.5,33.728,33.728,0,0,1-11.8-2.1,20.988,20.988,0,0,1-9-6c.7-.8,1.5-1.8,2.5-3s1.9-2.3,2.8-3.4,2-2.4,3.3-3.9c0-.1.3.1,1,.5.6.4,1.5,1,2.6,1.6a24.2,24.2,0,0,0,3.9,1.6,14.264,14.264,0,0,0,4.6.7c2.5,0,4.4-.5,5.7-1.6a5.067,5.067,0,0,0,2-4,4.744,4.744,0,0,0-2-3.9,27.584,27.584,0,0,0-4.9-2.8c-1.9-.8-4.1-1.8-6.4-2.8a28.891,28.891,0,0,1-6.4-3.7,19.46,19.46,0,0,1-4.9-5.7,21.286,21.286,0,0,1-.1-17.8,17.689,17.689,0,0,1,5-5.8,18.4,18.4,0,0,1,6.6-3.2,28.837,28.837,0,0,1,7-1,26.025,26.025,0,0,1,9.6,1.9A24.769,24.769,0,0,1,433.5,2138.6Z"/>
      <path id="Tracé_23762" data-name="Tracé 23762" d="M485.6,2138.6c-.6.9-1.3,1.9-2.2,3.1-.8,1.1-1.7,2.2-2.5,3.2s-1.7,2.2-2.8,3.7a17.066,17.066,0,0,0-2.9-1.6,18.171,18.171,0,0,0-3.3-1.1,15.825,15.825,0,0,0-3.8-.5,10.383,10.383,0,0,0-4.4,1,3.856,3.856,0,0,0-2.3,3.9,5.307,5.307,0,0,0,2,4.2,22.913,22.913,0,0,0,4.9,3.1c1.9.9,4.1,1.9,6.4,2.9a28.891,28.891,0,0,1,6.4,3.7,20.392,20.392,0,0,1,4.9,5.6,16.185,16.185,0,0,1,2,8.3,18.6,18.6,0,0,1-1.6,7.9,17.021,17.021,0,0,1-4.5,6.1,21.228,21.228,0,0,1-6.9,4,25.923,25.923,0,0,1-9.1,1.5,33.728,33.728,0,0,1-11.8-2.1,20.988,20.988,0,0,1-9-6c.7-.8,1.5-1.8,2.5-3s1.9-2.3,2.8-3.4,2-2.4,3.3-3.9c0-.1.3.1,1,.5.6.4,1.5,1,2.6,1.6a24.2,24.2,0,0,0,3.9,1.6,14.264,14.264,0,0,0,4.6.7c2.5,0,4.4-.5,5.7-1.6a5.067,5.067,0,0,0,2-4,4.744,4.744,0,0,0-2-3.9,27.584,27.584,0,0,0-4.9-2.8c-1.9-.8-4.1-1.8-6.4-2.8a28.891,28.891,0,0,1-6.4-3.7,19.46,19.46,0,0,1-4.9-5.7,21.286,21.286,0,0,1-.1-17.8,17.689,17.689,0,0,1,5-5.8,18.4,18.4,0,0,1,6.6-3.2,28.837,28.837,0,0,1,7-1,26.025,26.025,0,0,1,9.6,1.9A24.77,24.77,0,0,1,485.6,2138.6Z"/>
      <path id="Tracé_23763" data-name="Tracé 23763" d="M497.7,2164.5a32.664,32.664,0,0,1,2.6-12.9,31.733,31.733,0,0,1,7.2-10.5,36.165,36.165,0,0,1,10.8-7.1,35.06,35.06,0,0,1,26.5,0,30.938,30.938,0,0,1,10.5,7.1,34.191,34.191,0,0,1,6.9,10.5,32.6,32.6,0,0,1,2.5,12.9,33.447,33.447,0,0,1-2.5,13,31.76,31.76,0,0,1-6.9,10.7,32.9,32.9,0,0,1-24,9.8,35.46,35.46,0,0,1-13.1-2.4,31.51,31.51,0,0,1-10.7-6.8,33.135,33.135,0,0,1-7.2-10.6A35.576,35.576,0,0,1,497.7,2164.5Zm14.1.2a18.605,18.605,0,0,0,1.5,7.5,19.1,19.1,0,0,0,10.2,10.2,19.5,19.5,0,0,0,15,0,19.831,19.831,0,0,0,6.1-4.1,22.061,22.061,0,0,0,4.2-6.1,18.662,18.662,0,0,0,1.6-7.5,17.124,17.124,0,0,0-1.6-7.5,18.488,18.488,0,0,0-4.2-6.1,22.06,22.06,0,0,0-6.1-4.2,18.662,18.662,0,0,0-7.5-1.6,17.122,17.122,0,0,0-7.5,1.6,18.484,18.484,0,0,0-6.1,4.2,19.833,19.833,0,0,0-4.1,6.1A18.605,18.605,0,0,0,511.8,2164.7Z"/>
      <path id="Tracé_23764" data-name="Tracé 23764" d="M576.6,2108.4a8.134,8.134,0,0,1,2.8-6.4,8.891,8.891,0,0,1,6.1-2.5,9.05,9.05,0,0,1,8.8,8.9,8.2,8.2,0,0,1-2.8,6.5,9.13,9.13,0,0,1-6,2.5,8.891,8.891,0,0,1-6.1-2.5A8.686,8.686,0,0,1,576.6,2108.4Zm16,87.9H578.3V2133h14.3Z"/>
      <path id="Tracé_23765" data-name="Tracé 23765" d="M645.6,2149.8a30.251,30.251,0,0,0-8,1,20.8,20.8,0,0,0-6.7,3.2,16.413,16.413,0,0,0-4.7,5.4,14.871,14.871,0,0,0-1.8,7.5v29.4H610.1V2133h12.5c.2,3.6.4,6.5.7,8.7.2,2.2.5,4.7.7,7.5a25.872,25.872,0,0,1,5.2-7.5,43.925,43.925,0,0,1,6.8-5.6,38.035,38.035,0,0,1,6.9-3.6,18.666,18.666,0,0,1,5.8-1.3Z"/>
      <path id="Tracé_23766" data-name="Tracé 23766" d="M711.6,2189a33.547,33.547,0,0,1-11.2,6.6A38.663,38.663,0,0,1,687,2198a34.145,34.145,0,0,1-13.2-2.6,31.557,31.557,0,0,1-10.7-7.2,35.5,35.5,0,0,1-7.2-10.6,32.166,32.166,0,0,1,0-25.8,36.811,36.811,0,0,1,7.2-10.6,35.5,35.5,0,0,1,10.6-7.2,32.417,32.417,0,0,1,12.7-2.6,29.22,29.22,0,0,1,18.8,6.5,34.339,34.339,0,0,1,11.5,17.1c-3,1.1-6.4,2.4-10.4,3.9-3.9,1.5-8,3.2-12.3,4.8-4.3,1.7-8.5,3.4-12.8,5.1s-8.2,3.3-11.8,4.7a19.162,19.162,0,0,0,7,7.4,18.522,18.522,0,0,0,10.1,2.8,23.794,23.794,0,0,0,7.8-1.4,18.017,18.017,0,0,0,6.5-3.8Zm-12.5-37.3a10.588,10.588,0,0,0-5.4-4.8,18.2,18.2,0,0,0-7-1.6,17.876,17.876,0,0,0-7.6,1.6,17.509,17.509,0,0,0-6.1,4.2,19.106,19.106,0,0,0-4,6,16.49,16.49,0,0,0-1.5,6.9v.6c2.5-1,5.1-2.1,8-3.2,2.8-1.1,5.7-2.3,8.5-3.5s5.5-2.3,8.1-3.4S697,2152.5,699.1,2151.7Z"/>
      <path id="Tracé_23767" data-name="Tracé 23767" d="M763.9,2138.6c-.6.9-1.3,1.9-2.2,3.1-.8,1.1-1.7,2.2-2.5,3.2s-1.7,2.2-2.8,3.7a17.065,17.065,0,0,0-2.9-1.6,18.172,18.172,0,0,0-3.3-1.1,15.825,15.825,0,0,0-3.8-.5,10.383,10.383,0,0,0-4.4,1,3.856,3.856,0,0,0-2.3,3.9,5.307,5.307,0,0,0,2,4.2,22.912,22.912,0,0,0,4.9,3.1c1.9.9,4.1,1.9,6.4,2.9a28.892,28.892,0,0,1,6.4,3.7,20.392,20.392,0,0,1,4.9,5.6,16.185,16.185,0,0,1,2,8.3,18.6,18.6,0,0,1-1.6,7.9,17.02,17.02,0,0,1-4.5,6.1,21.228,21.228,0,0,1-6.9,4,25.923,25.923,0,0,1-9.1,1.5,33.728,33.728,0,0,1-11.8-2.1,20.988,20.988,0,0,1-9-6c.7-.8,1.5-1.8,2.5-3s1.9-2.3,2.8-3.4,2-2.4,3.3-3.9c0-.1.3.1,1,.5.6.4,1.5,1,2.6,1.6a24.194,24.194,0,0,0,3.9,1.6,14.264,14.264,0,0,0,4.6.7c2.5,0,4.4-.5,5.7-1.6a5.067,5.067,0,0,0,2-4,4.744,4.744,0,0,0-2-3.9,27.583,27.583,0,0,0-4.9-2.8c-1.9-.8-4.1-1.8-6.4-2.8a28.892,28.892,0,0,1-6.4-3.7,19.461,19.461,0,0,1-4.9-5.7,21.286,21.286,0,0,1-.1-17.8,17.689,17.689,0,0,1,5-5.8,18.4,18.4,0,0,1,6.6-3.2,28.838,28.838,0,0,1,7-1,26.024,26.024,0,0,1,9.6,1.9A24.77,24.77,0,0,1,763.9,2138.6Z"/>
    </g>
  </g>
</svg>
