<svg xmlns="http://www.w3.org/2000/svg" width="40" height="40" viewBox="0 0 40 40">
  <path id="Accessoires" d="M37.514,0A2.478,2.478,0,0,0,35,2.486s-.015,2.507-.015,5.015a34.243,34.243,0,0,1-.472,5.8C22.829,4.519,15.4,1.574,12.424,4.557A7.08,7.08,0,0,0,10.6,9.987c0,.178,0,.4-.008.6-.2.007-.423.008-.6.008a7.08,7.08,0,0,0-5.43,1.827c-2.98,2.98-.037,10.4,8.747,22.09a34.243,34.243,0,0,1-5.8.472c-2.507,0-5.013.013-5.013.013h0A2.5,2.5,0,0,0,2.5,40h.013s2.493-.013,4.987-.013c9.427,0,17.282-3.075,23.347-9.14S39.986,16.926,39.986,7.5c0-2.492.015-4.983.015-4.985A2.5,2.5,0,0,0,37.516,0Zm-10.2,27.312a25.136,25.136,0,0,1-8.8,5.782c-1.095-1.432-2.147-2.875-3.135-4.29a21.019,21.019,0,0,0,8.285-5.143,21.928,21.928,0,0,0,2.563-3.08A2.5,2.5,0,0,0,22.1,17.757a16.632,16.632,0,0,1-1.973,2.37,16.124,16.124,0,0,1-7.642,4.313c-2.5-3.987-4.123-7.277-4.155-8.647a4.174,4.174,0,0,1,1.682-.192,5.6,5.6,0,0,0,4.258-1.33,5.589,5.589,0,0,0,1.33-4.258,4.174,4.174,0,0,1,.192-1.682c2.295.053,9.978,4.582,17.3,10.182a25.113,25.113,0,0,1-5.782,8.8Z" transform="translate(-0.002 0.002)" fill="#e5dbc2"/>
</svg>
