<svg id="Apropos" xmlns="http://www.w3.org/2000/svg" width="30" height="30" viewBox="0 0 30 30">
  <path id="Tracé_23746" data-name="Tracé 23746" d="M15,0A15,15,0,1,0,30,15,15,15,0,0,0,15,0Zm0,26.25A11.25,11.25,0,1,1,26.25,15,11.25,11.25,0,0,1,15,26.25Z" fill="#faf7f2"/>
  <path id="Tracé_23747" data-name="Tracé 23747" d="M12.022,9.545h-.375a1.971,1.971,0,0,0-2.006,1.741,1.875,1.875,0,0,0,1.7,1.992v5.813a1.875,1.875,0,0,0,3.75,0V12.614a3.069,3.069,0,0,0-3.069-3.069Z" transform="translate(2.409 2.386)" fill="#faf7f2"/>
  <path id="Tracé_23748" data-name="Tracé 23748" d="M12.259,9.324A2.144,2.144,0,1,0,10.742,8.7,2.145,2.145,0,0,0,12.259,9.324Z" transform="translate(2.529 1.259)" fill="#faf7f2"/>
</svg>
