<svg id="Close_" data-name="Close`" xmlns="http://www.w3.org/2000/svg" width="55" height="55" viewBox="0 0 55 55">
  <rect id="Rectangle_15" data-name="Rectangle 15" width="55" height="55" fill="#e5dbc2" opacity="0.002"/>
  <path id="bars-sort_3" data-name="bars-sort 3" d="M70.586,67.875l4.229-4.229a1.918,1.918,0,0,0,0-2.711h0a1.918,1.918,0,0,0-2.711,0l-4.229,4.229-4.229-4.229a1.918,1.918,0,0,0-2.711,0h0a1.918,1.918,0,0,0,0,2.711l4.229,4.229L60.936,72.1a1.918,1.918,0,0,0,0,2.711h0a1.918,1.918,0,0,0,2.711,0l4.229-4.229L72.1,74.814a1.918,1.918,0,0,0,2.711,0h0a1.918,1.918,0,0,0,0-2.711Z" transform="translate(-40.375 -40.375)" fill="#312219"/>
</svg>
