<svg id="Collections" xmlns="http://www.w3.org/2000/svg" width="37" height="40" viewBox="0 0 37 40">
  <path id="Tracé_23741" data-name="Tracé 23741" d="M27.7,7.119C25.185,4.6,21.63,4.6,15.111,4.6S5.037,4.6,2.519,7.119,0,13.341,0,19.859v2.667C0,29.044,0,32.6,2.519,35.267c2.519,2.519,6.074,2.519,12.593,2.519s10.074,0,12.593-2.519,2.519-6.222,2.519-12.741V19.859c0-6.519,0-10.222-2.519-12.741Zm-9.63,1.926v6.37c-.3-.148-.444-.444-.741-.593a3.747,3.747,0,0,0-2.222-.889,3.747,3.747,0,0,0-2.222.889,3.238,3.238,0,0,1-.741.444V9.044h5.926Zm7.7,13.481c0,5.778,0,8.3-1.185,9.63-1.333,1.185-3.852,1.185-9.481,1.185s-8.148,0-9.333-1.185c-1.333-1.333-1.333-3.852-1.333-9.63V19.859c0-5.778,0-8.444,1.185-9.63A3.387,3.387,0,0,1,7.7,9.341v6.519c0,1.926,0,3.7,1.63,4.593,2.074,1.185,4.148-.444,5.333-1.481.148-.148.3-.148.444-.3.148.148.3.148.444.3.889.741,2.37,1.926,3.852,1.926a2.858,2.858,0,0,0,1.481-.444c1.63-.889,1.63-2.667,1.63-4.593V9.341a3.843,3.843,0,0,1,2.074.889c1.185,1.185,1.185,3.852,1.185,9.63Z" transform="translate(0 2.215)" fill="#e5dbc2"/>
  <path id="Tracé_23742" data-name="Tracé 23742" d="M30.026,3.111C26.767,0,22.174,0,13.73,0H10.322A2.278,2.278,0,0,0,8.1,2.222a2.278,2.278,0,0,0,2.222,2.222H13.73c7.407,0,11.259,0,13.037,1.778C28.693,8,28.693,11.259,28.693,19.111V29.333a2.222,2.222,0,1,0,4.444,0V19.111C33.137,10.815,33.137,6.222,30.026,3.111Z" transform="translate(3.863)" fill="#e5dbc2"/>
</svg>
