<svg xmlns="http://www.w3.org/2000/svg" width="30" height="30" viewBox="0 0 30 30">
  <g id="instagram_" data-name="instagram " transform="translate(8 8)">
    <path id="Tracé_23751" data-name="Tracé 23751" d="M21.915.983a9.334,9.334,0,0,0-2.489-6.409,9.334,9.334,0,0,0-6.409-2.489C11.449-7.983,10.932-8,7-8s-4.449.017-6.017.085A9.334,9.334,0,0,0-5.426-5.426,9.349,9.349,0,0,0-7.915.983C-7.983,2.551-8,3.068-8,7s.017,4.449.085,6.017a9.323,9.323,0,0,0,2.489,6.409A9.349,9.349,0,0,0,.983,21.915C2.551,21.983,3.068,22,7,22s4.449-.017,6.017-.085a9.334,9.334,0,0,0,6.409-2.489,9.349,9.349,0,0,0,2.489-6.409C21.983,11.449,22,10.932,22,7S21.983,2.551,21.915.983ZM7,18.472c-3.881,0-4.341-.017-5.858-.085a6.009,6.009,0,0,1-4.074-1.455,5.894,5.894,0,0,1-1.455-4.074c-.068-1.517-.085-1.977-.085-5.858s.017-4.341.085-5.858A6.009,6.009,0,0,1-2.932-2.932,5.82,5.82,0,0,1,1.142-4.386C2.659-4.455,3.119-4.472,7-4.472s4.335.017,5.858.085a5.921,5.921,0,0,1,4.074,1.455,5.82,5.82,0,0,1,1.455,4.074c.068,1.517.085,1.977.085,5.858s-.017,4.341-.085,5.858a5.921,5.921,0,0,1-1.455,4.074,5.82,5.82,0,0,1-4.074,1.455C11.341,18.455,10.881,18.472,7,18.472Z" transform="translate(0 0)" fill="#faf7f2"/>
    <path id="Tracé_23752" data-name="Tracé 23752" d="M124.426,116.5a7.926,7.926,0,1,0,7.926,7.926A7.937,7.937,0,0,0,124.426,116.5Zm0,12.318a4.392,4.392,0,1,1,4.392-4.392A4.4,4.4,0,0,1,124.426,128.818Z" transform="translate(-117.426 -117.426)" fill="#faf7f2"/>
    <path id="Tracé_23753" data-name="Tracé 23753" d="M356.2,80.6a2.2,2.2,0,1,0,2.2,2.2A2.2,2.2,0,0,0,356.2,80.6Z" transform="translate(-341.432 -83.566)" fill="#faf7f2"/>
  </g>
</svg>
