<svg xmlns="http://www.w3.org/2000/svg" width="70" height="60" viewBox="0 0 70 60">
  <g id="Logo-Zium" transform="translate(-5.99 -36)">
    <ellipse id="Ellipse_250" data-name="Ellipse 250" cx="10.64" cy="10.401" rx="10.64" ry="10.401" transform="translate(30.351 36)" fill="#e5dbc3"/>
    <path id="Tracé_23731" data-name="Tracé 23731" d="M75.99,66.4c0-.177-.042-.355-.056-.532-.014-.327-.028-.5-.028-.5h-.014a5.459,5.459,0,0,0-10.682.123c-4.872,23.21-24.22,22.282-24.22,22.282S21.643,88.7,16.786,65.491A5.459,5.459,0,0,0,6.1,65.368H6.076s-.014.177-.028.5c-.014.177-.056.355-.056.532H6.02c-.154,4-.042,18.641,9.3,25.487,10.878,7.964,11.956,8.4,11.956,8.4s5.922,4.923,5.866,9.15c-.042,3.436,1.5,7.868,7.84,8.223,6.342-.355,7.882-4.786,7.84-8.223-.056-4.227,5.866-9.15,5.866-9.15s1.078-.436,11.956-8.4c9.338-6.846,9.45-21.491,9.3-25.487Z" transform="translate(0 -21.665)" fill="#e5dbc3"/>
  </g>
</svg>
