<svg id="shopping-cart" xmlns="http://www.w3.org/2000/svg" width="30" height="30" viewBox="0 0 30 30">
  <ellipse id="Ellipse_253" data-name="Ellipse 253" cx="2.499" cy="2.5" rx="2.499" ry="2.5" transform="translate(6.247 25)"/>
  <ellipse id="Ellipse_254" data-name="Ellipse 254" cx="2.499" cy="2.5" rx="2.499" ry="2.5" transform="translate(18.74 25)"/>
  <path id="Tracé_23734" data-name="Tracé 23734" d="M28.715,7.523A4.59,4.59,0,0,0,25.441,6.25H7.064L6.735,3.672A4.159,4.159,0,0,0,2.607,0H1.874A1.875,1.875,0,0,0,0,1.875H0A1.875,1.875,0,0,0,1.874,3.75h.733a.414.414,0,0,1,.407.375l1.874,14.7A4.157,4.157,0,0,0,9.016,22.5H21.662a6.872,6.872,0,0,0,6.621-5.052l1.557-5.664a4.363,4.363,0,0,0-1.126-4.261Zm-4.04,8.931a3.134,3.134,0,0,1-3.012,2.3H9.016a.411.411,0,0,1-.406-.375L7.542,10H25.629a.625.625,0,0,1,.607.79Z"/>
</svg>
