<svg xmlns="http://www.w3.org/2000/svg" width="685.5" height="457" viewBox="0 0 685.5 457">
  <g id="Vetement" transform="translate(-195 -2936.5)">
    <g id="Groupe_11" data-name="Groupe 11">
      <path id="Tracé_23797" data-name="Tracé 23797" d="M387.6,3393.5l-2.3-5.1c-1.5-3.4-4.9-11.3-11-25.8-6-14.1-13.3-31.3-21.7-50.9-9.1-21.3-18.9-44.2-29-68-10.6-25.1-21.6-50.7-32.7-76.1-11-25.1-22-50.6-32.7-75.9-10.6-24.9-20.3-47.5-28.9-67.7s-15.9-37.4-21.7-51.3c-5.6-13.4-9.4-22.4-11-26l-1.6-3.5h75.6l.6,1.5,113.1,272v.3c.1.4.5,1.9,2.2,7.2.4,1.2.8,2.4,1.1,3.6.3-1.2.7-2.4,1.1-3.6,1.9-5.9,2.6-7.6,3.1-8.3L505.2,2943h75.6l-1.6,3.5c-1.5,3.4-5.1,11.9-11,26-5.8,13.9-13.1,31.1-21.7,51.3-9.3,21.7-19,44.5-28.9,67.7-10.8,25.3-21.8,50.8-32.7,75.9-11.1,25.4-22.1,51-32.7,76.1-11,26-20.5,48.2-29,68-8.6,20.1-16,37.3-22,51s-9.8,22.3-11.3,25.8ZM202.7,2948c2,4.7,5.2,12.4,9.5,22.6,5.8,13.9,13.1,31.1,21.7,51.2,8.7,20.3,18.3,42.8,29,67.7,10.7,25.2,21.8,50.7,32.7,75.8,11.1,25.4,22.1,51,32.7,76.2,10.1,23.8,19.8,46.7,28.9,68,8.4,19.7,15.7,36.8,21.7,51,3.9,9.3,6.8,16,8.7,20.5,2-4.6,5-11.4,9-20.5,6-13.7,13.4-30.8,22-50.9,8.5-19.8,18-42.1,28.9-68,10.6-25.1,21.6-50.8,32.7-76.2,10.9-25.1,21.9-50.6,32.7-75.8,9.9-23.3,19.7-46.1,29-67.7,8.6-20.1,15.9-37.4,21.7-51.2,4.4-10.6,7.6-18.1,9.5-22.6H508.5L396,3218.6l-.2.2c-.2.4-.8,1.9-2.5,7a118.5,118.5,0,0,0-3.4,13.3H385a118.5,118.5,0,0,0-3.4-13.3c-1.7-5.2-2.2-7.1-2.4-7.9L267.2,2948ZM396,3218.6Zm-11.7-1.6Z"/>
    </g>
    <g id="Groupe_12" data-name="Groupe 12">
      <path id="Tracé_23798" data-name="Tracé 23798" d="M264.9,2936.5l29.1,69.9a17.868,17.868,0,0,0,.6,2,25.791,25.791,0,0,1,.9,3.5,25.8,25.8,0,0,1,.9-3.5,15.66,15.66,0,0,1,.7-2l29.1-69.9h18c-.4.9-1.3,3.1-2.8,6.7s-3.4,8-5.6,13.2-4.7,11-7.5,17.4q-4.05,9.6-8.4,19.5c-2.9,6.6-5.7,13.1-8.4,19.6s-5.2,12.3-7.5,17.5-4.1,9.6-5.7,13.1c-1.5,3.5-2.5,5.7-2.9,6.6-.4-.9-1.3-3.1-2.8-6.6s-3.4-7.9-5.6-13.1-4.7-11-7.5-17.5c-2.7-6.5-5.5-13-8.4-19.6s-5.7-13.1-8.4-19.5-5.2-12.2-7.4-17.4-4.1-9.6-5.6-13.2-2.4-5.8-2.8-6.7Z"/>
      <path id="Tracé_23799" data-name="Tracé 23799" d="M392,3037.8a33.548,33.548,0,0,1-11.2,6.6,38.662,38.662,0,0,1-13.4,2.4,34.145,34.145,0,0,1-13.2-2.6,31.557,31.557,0,0,1-10.7-7.2,35.5,35.5,0,0,1-7.2-10.6,32.166,32.166,0,0,1,0-25.8,36.811,36.811,0,0,1,7.2-10.6,35.5,35.5,0,0,1,10.6-7.2,32.417,32.417,0,0,1,12.7-2.6,29.22,29.22,0,0,1,18.8,6.5,34.339,34.339,0,0,1,11.5,17.1c-3,1.1-6.4,2.4-10.4,3.9-3.9,1.5-8,3.2-12.3,4.8-4.3,1.7-8.5,3.4-12.8,5.1s-8.2,3.3-11.8,4.7a19.162,19.162,0,0,0,7,7.4,18.522,18.522,0,0,0,10.1,2.8,23.794,23.794,0,0,0,7.8-1.4,18.016,18.016,0,0,0,6.5-3.8Zm-29.4-92.5c3.1,4.5,6.1,9,9.2,13.6,3,4.6,6.1,9.1,9.2,13.7H370.3l-7.6-10-7.5,10H344.6Zm16.9,55.3a10.588,10.588,0,0,0-5.4-4.8,18.2,18.2,0,0,0-7-1.6,17.876,17.876,0,0,0-7.6,1.6,17.51,17.51,0,0,0-6.1,4.2,19.106,19.106,0,0,0-4,6,16.49,16.49,0,0,0-1.5,6.9v.6c2.5-1,5.1-2.1,8-3.2,2.8-1.1,5.7-2.3,8.5-3.5s5.5-2.3,8.1-3.4C375,3002.3,377.4,3001.4,379.5,3000.6Z"/>
      <path id="Tracé_23800" data-name="Tracé 23800" d="M413.9,2954.1H428v27.7h16.5v12.8H428v50.5H413.8v-50.5H403.1v-12.8h10.7v-27.7Z"/>
      <path id="Tracé_23801" data-name="Tracé 23801" d="M508.3,3037.8a33.548,33.548,0,0,1-11.2,6.6,38.662,38.662,0,0,1-13.4,2.4,34.145,34.145,0,0,1-13.2-2.6,31.557,31.557,0,0,1-10.7-7.2,35.5,35.5,0,0,1-7.2-10.6,32.166,32.166,0,0,1,0-25.8,36.811,36.811,0,0,1,7.2-10.6,35.5,35.5,0,0,1,10.6-7.2,32.417,32.417,0,0,1,12.7-2.6,29.22,29.22,0,0,1,18.8,6.5,34.339,34.339,0,0,1,11.5,17.1c-3,1.1-6.4,2.4-10.4,3.9-3.9,1.5-8,3.2-12.3,4.8-4.3,1.7-8.5,3.4-12.8,5.1s-8.2,3.3-11.8,4.7a19.162,19.162,0,0,0,7,7.4,18.522,18.522,0,0,0,10.1,2.8,23.794,23.794,0,0,0,7.8-1.4,18.016,18.016,0,0,0,6.5-3.8Zm-12.5-37.2a10.588,10.588,0,0,0-5.4-4.8,18.2,18.2,0,0,0-7-1.6,17.876,17.876,0,0,0-7.6,1.6,17.51,17.51,0,0,0-6.1,4.2,19.106,19.106,0,0,0-4,6,16.49,16.49,0,0,0-1.5,6.9v.6c2.5-1,5.1-2.1,8-3.2,2.8-1.1,5.7-2.3,8.5-3.5s5.5-2.3,8.1-3.4S493.7,3001.4,495.8,3000.6Z"/>
      <path id="Tracé_23802" data-name="Tracé 23802" d="M524.6,2981.8h12.7q.15,2.7.3,4.8t.3,3.9c.1,1.2.2,2.5.3,3.7s.2,2.5.3,3.9a37.088,37.088,0,0,1,9-12.9c3.6-3.2,8.6-4.9,15-5,6.3,0,11.2,1.6,15,4.7a18.763,18.763,0,0,1,6.6,12.3,46.142,46.142,0,0,1,4-6.9,28.856,28.856,0,0,1,5-5.4,19.33,19.33,0,0,1,6.3-3.5,26.28,26.28,0,0,1,8.3-1.3c6.6,0,11.8,1.8,15.6,5.3,3.9,3.5,5.9,8.1,6.1,13.8v45.9H615.1v-39.2a13.442,13.442,0,0,0-3.1-8c-1.9-2.2-5-3.5-9.4-3.7-5.9,0-10.4,1.9-13.6,5.7s-4.8,8.7-4.8,14.7V3045H569.9v-39.2a13.545,13.545,0,0,0-3.2-8c-1.9-2.2-5-3.5-9.3-3.7-5.9,0-10.4,1.9-13.6,5.7s-4.8,8.7-4.8,14.5v30.5H524.7v-63Z"/>
      <path id="Tracé_23803" data-name="Tracé 23803" d="M701,3037.8a33.547,33.547,0,0,1-11.2,6.6,38.663,38.663,0,0,1-13.4,2.4,34.145,34.145,0,0,1-13.2-2.6,31.557,31.557,0,0,1-10.7-7.2,35.5,35.5,0,0,1-7.2-10.6,32.166,32.166,0,0,1,0-25.8,36.811,36.811,0,0,1,7.2-10.6,35.5,35.5,0,0,1,10.6-7.2,32.417,32.417,0,0,1,12.7-2.6,29.22,29.22,0,0,1,18.8,6.5,34.339,34.339,0,0,1,11.5,17.1c-3,1.1-6.4,2.4-10.4,3.9-3.9,1.5-8,3.2-12.3,4.8-4.3,1.7-8.5,3.4-12.8,5.1s-8.2,3.3-11.8,4.7a19.162,19.162,0,0,0,7,7.4,18.522,18.522,0,0,0,10.1,2.8,23.794,23.794,0,0,0,7.8-1.4,18.017,18.017,0,0,0,6.5-3.8Zm-12.5-37.2a10.588,10.588,0,0,0-5.4-4.8,18.2,18.2,0,0,0-7-1.6,17.876,17.876,0,0,0-7.6,1.6,17.509,17.509,0,0,0-6.1,4.2,19.106,19.106,0,0,0-4,6,16.49,16.49,0,0,0-1.5,6.9v.6c2.5-1,5.1-2.1,8-3.2,2.8-1.1,5.7-2.3,8.5-3.5s5.5-2.3,8.1-3.4S686.4,3001.4,688.5,3000.6Z"/>
      <path id="Tracé_23804" data-name="Tracé 23804" d="M717.2,2981.8h12.5c.2,3.6.4,6.5.7,8.7.2,2.2.5,4.7.7,7.5a32.063,32.063,0,0,1,9.7-13c4.2-3.3,9.4-4.9,15.6-4.9,6.5,0,11.6,1.8,15.4,5.3a18.833,18.833,0,0,1,6,13.8v45.9H763.6v-39.2a13.047,13.047,0,0,0-3.3-8c-2-2.2-5.1-3.5-9.2-3.7a19.385,19.385,0,0,0-8,1.6,21.049,21.049,0,0,0-6.3,4.2,18.285,18.285,0,0,0-4,6.4,23.605,23.605,0,0,0-1.4,8v30.5H717.1v-63.1Z"/>
      <path id="Tracé_23805" data-name="Tracé 23805" d="M800.8,2954.1H815v27.7h16.5v12.8H815v50.5H800.8v-50.5H790.1v-12.8h10.7Z"/>
      <path id="Tracé_23806" data-name="Tracé 23806" d="M878.1,2987.5c-.6.9-1.3,1.9-2.2,3.1-.8,1.1-1.7,2.2-2.5,3.2s-1.7,2.2-2.8,3.7a17.065,17.065,0,0,0-2.9-1.6,18.172,18.172,0,0,0-3.3-1.1,15.825,15.825,0,0,0-3.8-.5,10.383,10.383,0,0,0-4.4,1,3.856,3.856,0,0,0-2.3,3.9,5.307,5.307,0,0,0,2,4.2,22.912,22.912,0,0,0,4.9,3.1c1.9.9,4.1,1.9,6.4,2.9a28.892,28.892,0,0,1,6.4,3.7,20.392,20.392,0,0,1,4.9,5.6,16.185,16.185,0,0,1,2,8.3,18.6,18.6,0,0,1-1.6,7.9,17.02,17.02,0,0,1-4.5,6.1,21.228,21.228,0,0,1-6.9,4,25.923,25.923,0,0,1-9.1,1.5,33.728,33.728,0,0,1-11.8-2.1,20.988,20.988,0,0,1-9-6c.7-.8,1.5-1.8,2.5-3s1.9-2.3,2.8-3.4,2-2.4,3.3-3.9c0-.1.3.1,1,.5.6.4,1.5,1,2.6,1.6a24.194,24.194,0,0,0,3.9,1.6,14.264,14.264,0,0,0,4.6.7c2.5,0,4.4-.5,5.7-1.6a5.067,5.067,0,0,0,2-4,4.744,4.744,0,0,0-2-3.9,27.583,27.583,0,0,0-4.9-2.8c-1.9-.8-4.1-1.8-6.4-2.8a28.892,28.892,0,0,1-6.4-3.7,19.461,19.461,0,0,1-4.9-5.7,21.286,21.286,0,0,1-.1-17.8,17.689,17.689,0,0,1,5-5.8,18.4,18.4,0,0,1,6.6-3.2,28.838,28.838,0,0,1,7-1,26.024,26.024,0,0,1,9.6,1.9A21.846,21.846,0,0,1,878.1,2987.5Z"/>
    </g>
  </g>
</svg>
