<svg xmlns="http://www.w3.org/2000/svg" width="1645.3" height="591.2" viewBox="0 0 1645.3 591.2">
  <g id="Videos" transform="translate(-128 -4041)">
    <g id="Groupe_13" data-name="Groupe 13">
      <path id="Tracé_23807" data-name="Tracé 23807" d="M320.6,4632.2l-2.3-5.1c-1.5-3.4-4.9-11.3-11-25.8-6-14.1-13.3-31.3-21.7-50.9-9.1-21.3-18.9-44.2-29-68-10.6-25.1-21.6-50.7-32.7-76.1-11-25.1-22-50.6-32.7-75.9-10.6-24.9-20.3-47.5-28.9-67.7s-15.9-37.4-21.7-51.3c-5.6-13.4-9.4-22.4-11-26l-1.6-3.5h75.6l.6,1.5,113.1,272v.3c.1.4.5,1.9,2.2,7.2.4,1.2.8,2.4,1.1,3.6.3-1.2.7-2.4,1.1-3.6,1.9-5.9,2.6-7.6,3.1-8.3l113.4-272.8h75.6l-1.6,3.5c-1.5,3.4-5.1,11.9-11,26-5.8,13.9-13.1,31.1-21.7,51.3-9.3,21.7-19,44.5-28.9,67.7-10.8,25.3-21.8,50.8-32.7,75.9-11.1,25.4-22.1,51-32.7,76.1-11,26-20.5,48.2-29,68-8.6,20.1-16,37.3-22,51s-9.8,22.3-11.3,25.8ZM135.7,4186.8c2,4.7,5.2,12.4,9.5,22.6,5.8,13.9,13.1,31.1,21.7,51.2,8.7,20.3,18.3,42.8,29,67.7,10.8,25.2,21.8,50.7,32.7,75.8,11.1,25.4,22.1,51,32.7,76.2,10.1,23.8,19.8,46.7,28.9,68,8.4,19.7,15.7,36.8,21.7,51,3.9,9.3,6.8,16,8.7,20.5,2-4.6,5-11.4,9-20.5,6-13.7,13.4-30.8,22-50.9,8.5-19.8,18-42.1,28.9-68,10.6-25.1,21.6-50.8,32.7-76.2,10.9-25.1,21.9-50.6,32.7-75.8,9.9-23.3,19.7-46.1,29-67.7,8.6-20.1,15.9-37.4,21.7-51.2,4.4-10.6,7.6-18.1,9.5-22.6H441.5L329,4457.4l-.2.2c-.2.4-.8,1.9-2.5,7a118.539,118.539,0,0,0-3.4,13.3H318a118.486,118.486,0,0,0-3.4-13.3c-1.7-5.2-2.2-7.1-2.4-7.9L200.1,4187H135.7ZM329,4457.3Zm-11.7-1.5Z"/>
    </g>
    <g id="Groupe_14" data-name="Groupe 14" opacity="0.6">
      <path id="Tracé_23808" data-name="Tracé 23808" d="M318.3,4114.4,399.6,4310c0,.3.6,2.2,1.7,5.6a88.387,88.387,0,0,1,2.5,9.8,88.36,88.36,0,0,1,2.5-9.8c1.1-3.5,1.8-5.3,2.1-5.6l81.3-195.6h50.5c-1.1,2.5-3.8,8.8-7.9,18.8s-9.4,22.3-15.6,36.9q-9.45,21.9-20.8,48.8-11.4,26.85-23.6,54.6c-8.1,18.5-15.9,36.8-23.6,54.8-7.6,18.1-14.6,34.4-20.8,49-6.3,14.6-11.5,26.8-15.8,36.7s-7,16.1-8.1,18.6c-1.1-2.5-3.8-8.7-7.9-18.6-4.2-9.9-9.4-22.1-15.6-36.7-6.3-14.6-13.2-30.9-20.9-49-7.6-18.1-15.5-36.3-23.6-54.8s-15.9-36.7-23.6-54.6c-7.6-17.9-14.6-34.2-20.8-48.8q-9.45-21.9-15.6-36.9c-4.1-10-6.8-16.3-7.9-18.8Z" fill="#998784"/>
      <path id="Tracé_23809" data-name="Tracé 23809" d="M575.2,4114.4h51.3v304H575.2Z" fill="#998784"/>
      <path id="Tracé_23810" data-name="Tracé 23810" d="M696.5,4114.4h78.8q45.9,0,77.8,14,31.95,13.95,51.9,36.1a136.186,136.186,0,0,1,29,50.2,183.677,183.677,0,0,1,9,56.1q0,34.2-12.3,61.5a141.352,141.352,0,0,1-33.2,46.5,144.5,144.5,0,0,1-48.6,29.4,168.366,168.366,0,0,1-58.6,10.2H696.5v-304ZM782.4,4370a136.818,136.818,0,0,0,43.8-6.7,96.968,96.968,0,0,0,34.6-19.8,91.37,91.37,0,0,0,22.7-32.1c5.4-12.6,8.1-27.3,8.1-44,0-18.9-3.3-35-9.8-48.2s-14.8-23.9-24.8-32.1a95.67,95.67,0,0,0-33.4-17.9,117.559,117.559,0,0,0-35-5.6H747.7V4370Z" fill="#998784"/>
      <path id="Tracé_23811" data-name="Tracé 23811" d="M993.8,4418.4v-304h201.8v46.3h-151v81.7H1179v47.5H1044.7v80.9h156.8v47.5H993.8Zm77.2-321.1c6.4-9.2,12.7-18.5,19-27.9s12.6-18.9,19-28.4h43c-8.3,9.5-16.8,18.9-25.4,28.4s-17.2,18.8-25.9,27.9Z" fill="#998784"/>
      <path id="Tracé_23812" data-name="Tracé 23812" d="M1226.5,4267a149.129,149.129,0,0,1,12.3-60,159.744,159.744,0,0,1,82.6-83.4,150.97,150.97,0,0,1,120.3,0,161.044,161.044,0,0,1,49.6,33.8,158.768,158.768,0,0,1,33.6,49.6,153.222,153.222,0,0,1,0,120.3,155.86,155.86,0,0,1-33.6,49.2,159.364,159.364,0,0,1-49.6,33.2,155.553,155.553,0,0,1-120.3,0,154.759,154.759,0,0,1-49.2-33.2,158.667,158.667,0,0,1-33.4-49.2A149.167,149.167,0,0,1,1226.5,4267Zm51.3,0a106.615,106.615,0,0,0,8.1,41.5,104.2,104.2,0,0,0,22.5,33.8,106.854,106.854,0,0,0,33.4,22.7,103.684,103.684,0,0,0,81.3,0,104.045,104.045,0,0,0,32.9-22.7,108.157,108.157,0,0,0,22.1-33.8,106.615,106.615,0,0,0,8.1-41.5,104.964,104.964,0,0,0-8.3-41.5,113.194,113.194,0,0,0-22.5-34,103.788,103.788,0,0,0-33.2-22.9,99.448,99.448,0,0,0-40.7-8.3,100.995,100.995,0,0,0-73.6,31.2,110.255,110.255,0,0,0-22.1,34A108.4,108.4,0,0,0,1277.8,4267Z" fill="#998784"/>
      <path id="Tracé_23813" data-name="Tracé 23813" d="M1763.2,4131.5l-18.3,41.7a279.167,279.167,0,0,0-34.6-10,149.136,149.136,0,0,0-31.7-3.8c-17,0-30.4,3.3-40.2,10-9.9,6.7-14.8,15.2-14.8,25.4,0,8.9,3.7,16.1,11.1,21.7s16.6,10.6,27.7,15c11.1,4.5,23.1,9,36.1,13.6a175.345,175.345,0,0,1,36.1,17.7,94.291,94.291,0,0,1,27.7,27.5c7.4,11.1,11,25.3,11,42.5,0,13.3-2.4,25.4-7.3,36.3a74.756,74.756,0,0,1-21.9,27.9c-9.7,7.8-22,13.8-36.9,18.1s-32.3,6.5-52.3,6.5a196.942,196.942,0,0,1-60.3-8.8,173.071,173.071,0,0,1-21.1-8.1,169.811,169.811,0,0,1-15.8-8.5l22.1-44.6a165.534,165.534,0,0,0,37.5,14.8c13.3,3.5,25.2,5.2,35.4,5.2a148.192,148.192,0,0,0,19.4-1.7,94.317,94.317,0,0,0,23.1-6.3,59.986,59.986,0,0,0,19.4-12.5q8.1-7.95,8.1-20.4a30.36,30.36,0,0,0-11-24c-7.4-6.3-16.6-11.8-27.7-16.7s-23.1-9.7-36.1-14.4a221.684,221.684,0,0,1-36.1-16.9,94.159,94.159,0,0,1-27.7-24.2c-7.4-9.6-11.1-21.7-11.1-36.5a80.77,80.77,0,0,1,6.3-31.1,79.777,79.777,0,0,1,19-27.3c8.5-8.1,19-14.6,31.7-19.6,12.6-5,27.6-7.5,44.8-7.5a180.915,180.915,0,0,1,31.5,2.7q15.15,2.7,27.3,6a189.776,189.776,0,0,1,20,6.5A100.5,100.5,0,0,0,1763.2,4131.5Z" fill="#998784"/>
    </g>
  </g>
</svg>
