<svg xmlns="http://www.w3.org/2000/svg" width="1876.2" height="508.2" viewBox="0 0 1876.2 508.2">
  <g id="Articles" transform="translate(-15 -2661.1)">
    <g id="Groupe_6" data-name="Groupe 6">
      <path id="Tracé_23776" data-name="Tracé 23776" d="M573,3166.8c-1.2-2.7-3.2-7.5-6.1-14.5-2.9-6.9-6.5-15.4-10.7-25.5-4.3-10-8.9-21.1-13.9-33.3s-10.2-24.8-15.6-37.9H381.4l-46.3,111.2H265c1.5-3.5,5.2-12.1,11-25.8s13-30.7,21.7-51,18.3-42.8,28.9-67.7,21.5-50.3,32.7-76.1c11.2-25.9,22.1-51.2,32.7-76.1s20.3-47.5,28.9-67.7c8.7-20.3,15.9-37.2,21.7-51,5.8-13.7,9.5-22.3,11-25.8,1.5,3.5,5.3,12.1,11.3,25.8s13.3,30.7,22,51,18.3,42.8,28.9,67.7,21.5,50.3,32.7,76.1c11.2,25.9,22.1,51.2,32.7,76.1s20.3,47.5,28.9,67.7q13.05,30.45,21.7,51c5.8,13.7,9.5,22.3,11,25.8ZM405.7,2995.9h96.1l-41.7-100.7c-.4-.4-1.4-3-2.9-7.8s-2.7-9.2-3.5-13a111.893,111.893,0,0,1-3.5,13c-1.5,4.8-2.3,7.4-2.3,7.8Z" fill="none" stroke="#000" stroke-width="5"/>
    </g>
    <g id="Groupe_7" data-name="Groupe 7" opacity="0.6">
      <path id="Tracé_23777" data-name="Tracé 23777" d="M236.8,2978.8c-.8-1.9-2.3-5.4-4.4-10.4s-4.7-11.1-7.7-18.3c-3.1-7.2-6.4-15.2-10-24s-7.4-17.9-11.3-27.3H98.8l-33.4,80.1H15c1.1-2.5,3.8-8.7,7.9-18.6,4.2-9.9,9.4-22.1,15.6-36.7q9.45-21.9,20.8-48.8,11.4-26.85,23.6-54.8c8.1-18.6,15.9-36.9,23.6-54.8q11.4-26.85,20.9-48.8c6.3-14.6,11.5-26.8,15.6-36.7,4.2-9.9,6.8-16.1,7.9-18.6q1.65,3.75,8.1,18.6c4.3,9.9,9.6,22.1,15.8,36.7q9.45,21.9,20.8,48.8,11.4,26.85,23.6,54.8c8.1,18.6,15.9,36.9,23.6,54.8,7.6,17.9,14.6,34.2,20.8,48.8,6.3,14.6,11.5,26.8,15.6,36.7,4.2,9.9,6.8,16.1,7.9,18.6H236.8ZM116.3,2855.7h69.2l-30-72.6c-.3-.3-1-2.1-2.1-5.6s-1.9-6.6-2.5-9.4c-.6,2.8-1.4,5.9-2.5,9.4s-1.7,5.4-1.7,5.6Z" fill="#998784"/>
      <path id="Tracé_23778" data-name="Tracé 23778" d="M322.3,2978.8v-304h85.9c16.7,0,31.9,2.2,45.7,6.7s25.4,10.8,35,19.2a84.136,84.136,0,0,1,22.3,30.9c5.3,12.2,7.9,26,7.9,41.3a124.7,124.7,0,0,1-2.5,25,110.5,110.5,0,0,1-7.9,24.2,86.57,86.57,0,0,1-35,38.4c6.1,9.7,12.1,19.3,17.9,28.6s11.7,18.7,17.7,28.1c6,9.5,12.2,19.2,18.6,29.2s13.3,20.9,20.8,32.5H487.4q-18.75-29.25-35.4-55.3c-11.1-17.4-21.8-33.8-32.1-49.4H373.2v104.7H322.3Zm50.9-152.7h40.9c10.6,0,19.3-1.8,26.3-5.4a53.194,53.194,0,0,0,16.7-13.1,45.624,45.624,0,0,0,8.8-16.7,60.734,60.734,0,0,0,2.5-16.5,67.688,67.688,0,0,0-2.3-16.1,46.281,46.281,0,0,0-24.8-30.2c-7-3.6-15.8-5.4-26.7-5.4H373.3v103.4Z" fill="#998784"/>
      <path id="Tracé_23779" data-name="Tracé 23779" d="M763.1,2674.8v48.8H688v255.2H636.7V2723.6H563.3v-48.8Z" fill="#998784"/>
      <path id="Tracé_23780" data-name="Tracé 23780" d="M815.6,2674.8h51.3v304H815.6Z" fill="#998784"/>
      <path id="Tracé_23781" data-name="Tracé 23781" d="M1165.9,2956.2a134.586,134.586,0,0,1-14,7.9,136.719,136.719,0,0,1-21.3,8.5,212.681,212.681,0,0,1-27.7,6.7,191.368,191.368,0,0,1-32.9,2.7q-35.85,0-64.2-12.3c-18.9-8.2-34.9-19.2-48-33.2a142.7,142.7,0,0,1-30-48.8,165.475,165.475,0,0,1-10.4-58.8q0-34.2,12.5-63.2a153.372,153.372,0,0,1,84-82.7,159.425,159.425,0,0,1,61.1-11.7,166.4,166.4,0,0,1,25.2,1.9q12.75,1.95,24,4.8a127,127,0,0,1,19.8,6.7c5.7,2.5,9.8,5.1,12.3,7.9-2.5,3.9-4.5,7.1-5.8,9.6-1.4,2.5-2.9,5.1-4.4,7.7s-3.2,5.6-5,9c-1.8,3.3-4.4,7.9-7.7,13.8a52.421,52.421,0,0,0-12.1-5.8,100.567,100.567,0,0,0-14.8-4c-5.1-1-10.4-1.7-15.6-2.3a125.153,125.153,0,0,0-14.2-.8,104.623,104.623,0,0,0-43.2,8.8,112.661,112.661,0,0,0-34.2,23.1,104.409,104.409,0,0,0-22.5,33.6,100.929,100.929,0,0,0-8.1,39.6,103.844,103.844,0,0,0,7.7,39,105.492,105.492,0,0,0,21.7,33.6,110.587,110.587,0,0,0,33.2,23.6c12.8,6,27,9,42.5,9a123.034,123.034,0,0,0,25.9-2.7,197.328,197.328,0,0,0,22.1-6,91.82,91.82,0,0,0,15.6-6.7c4-2.2,6.2-3.8,6.5-4.6Z" fill="#998784"/>
      <path id="Tracé_23782" data-name="Tracé 23782" d="M1203.9,2978.8v-304h50.9v255.6h147.6v48.4Z" fill="#998784"/>
      <path id="Tracé_23783" data-name="Tracé 23783" d="M1443.6,2978.8v-304h201.8v46.3h-151v81.7h134.3v47.5H1494.4v80.9h156.8v47.5H1443.6Z" fill="#998784"/>
      <path id="Tracé_23784" data-name="Tracé 23784" d="M1881.1,2691.9l-18.3,41.7a279.209,279.209,0,0,0-34.6-10,149.137,149.137,0,0,0-31.7-3.8c-17,0-30.4,3.3-40.2,10-9.9,6.7-14.8,15.2-14.8,25.4,0,8.9,3.7,16.1,11.1,21.7s16.6,10.6,27.7,15c11.1,4.5,23.1,9,36.1,13.6a175.356,175.356,0,0,1,36.1,17.7,94.288,94.288,0,0,1,27.7,27.5c7.4,11.1,11,25.3,11,42.5,0,13.3-2.4,25.4-7.3,36.3a74.756,74.756,0,0,1-21.9,27.9c-9.7,7.8-22,13.8-36.9,18.1s-32.3,6.5-52.3,6.5a196.931,196.931,0,0,1-60.3-8.8,173.031,173.031,0,0,1-21.1-8.1,169.869,169.869,0,0,1-15.8-8.5l22.1-44.6a165.534,165.534,0,0,0,37.5,14.8c13.3,3.5,25.2,5.2,35.4,5.2a148.228,148.228,0,0,0,19.4-1.7,94.3,94.3,0,0,0,23.1-6.3,59.982,59.982,0,0,0,19.4-12.5q8.1-7.95,8.1-20.4a30.361,30.361,0,0,0-11-24c-7.4-6.3-16.6-11.8-27.7-16.7s-23.1-9.7-36.1-14.4a221.664,221.664,0,0,1-36.1-16.9,94.162,94.162,0,0,1-27.7-24.2c-7.4-9.6-11.1-21.7-11.1-36.5a80.77,80.77,0,0,1,6.3-31.1,79.783,79.783,0,0,1,19-27.3c8.5-8.1,19-14.6,31.7-19.6,12.6-5,27.6-7.5,44.8-7.5a180.939,180.939,0,0,1,31.5,2.7q15.15,2.7,27.3,6a189.719,189.719,0,0,1,20,6.5A82.138,82.138,0,0,0,1881.1,2691.9Z" fill="#998784"/>
    </g>
  </g>
</svg>
