<svg xmlns="http://www.w3.org/2000/svg" width="100" height="100" viewBox="0 0 100 100">
  <g id="Close_" data-name="Close`" transform="translate(-1620 -100)">
    <rect id="Rectangle_15" data-name="Rectangle 15" width="100" height="100" transform="translate(1620 100)" fill="#e5dbc2" opacity="0.002"/>
    <path id="bars-sort_3" data-name="bars-sort 3" d="M94.41,85.375l14.1-14.1a6.394,6.394,0,0,0,0-9.035h0a6.394,6.394,0,0,0-9.035,0l-14.1,14.1-14.1-14.1a6.394,6.394,0,0,0-9.035,0h0a6.394,6.394,0,0,0,0,9.035l14.1,14.1-14.1,14.1a6.394,6.394,0,0,0,0,9.035h0a6.394,6.394,0,0,0,9.035,0l14.1-14.1,14.1,14.1a6.394,6.394,0,0,0,9.035,0h0a6.394,6.394,0,0,0,0-9.035Z" transform="translate(1584.625 64.625)" fill="#e5dbc2"/>
  </g>
</svg>
