<svg xmlns="http://www.w3.org/2000/svg" width="50" height="50" viewBox="0 0 50 50">
  <g id="Insta" transform="translate(-60 -950)">
    <g id="instagram_" data-name="instagram " transform="translate(60 950)">
      <path id="Tracé_23751" data-name="Tracé 23751" d="M41.858,6.972c-.208-4.545-1.6-8.134-4.148-10.682S31.574-7.65,27.028-7.858C24.415-7.972,23.553-8,17-8s-7.415.028-10.028.142C2.426-7.65-1.163-6.258-3.71-3.71S-7.65,2.426-7.858,6.972C-7.972,9.585-8,10.447-8,17s.028,7.415.142,10.028c.208,4.545,1.6,8.144,4.148,10.682S2.426,41.65,6.972,41.858C9.585,41.972,10.447,42,17,42s7.415-.028,10.028-.142c4.545-.208,8.134-1.6,10.682-4.148s3.939-6.136,4.148-10.682C41.972,24.415,42,23.553,42,17S41.972,9.585,41.858,6.972ZM17,36.119c-6.468,0-7.235-.028-9.763-.142-3.03-.142-5.312-.956-6.79-2.424-1.5-1.5-2.282-3.712-2.424-6.79-.114-2.528-.142-3.3-.142-9.763s.028-7.235.142-9.763c.142-3.03.956-5.312,2.424-6.79,1.515-1.515,3.674-2.282,6.79-2.424,2.528-.114,3.3-.142,9.763-.142s7.225.028,9.763.142c3.078.142,5.294.938,6.79,2.424,1.515,1.515,2.282,3.674,2.424,6.79.114,2.528.142,3.3.142,9.763s-.028,7.235-.142,9.763c-.142,3.078-.937,5.294-2.424,6.79-1.515,1.515-3.674,2.282-6.79,2.424C24.235,36.091,23.468,36.119,17,36.119Z" transform="translate(8 8)" fill="#faf7f2"/>
      <path id="Tracé_23752" data-name="Tracé 23752" d="M129.71,116.5a13.21,13.21,0,1,0,13.21,13.21A13.228,13.228,0,0,0,129.71,116.5Zm0,20.53a7.32,7.32,0,1,1,7.32-7.32A7.331,7.331,0,0,1,129.71,137.03Z" transform="translate(-104.71 -104.71)" fill="#faf7f2"/>
      <path id="Tracé_23753" data-name="Tracé 23753" d="M357.665,80.6a3.665,3.665,0,1,0,3.665,3.665A3.668,3.668,0,0,0,357.665,80.6Z" transform="translate(-319.72 -72.21)" fill="#faf7f2"/>
    </g>
  </g>
</svg>
