<svg xmlns="http://www.w3.org/2000/svg" width="200" height="171.429" viewBox="0 0 200 171.429">
  <g id="Logo-Zium" transform="translate(-5.99 -36)">
    <ellipse id="Ellipse_250" data-name="Ellipse 250" cx="30.399" cy="29.716" rx="30.399" ry="29.716" transform="translate(75.593 36)" fill="#e5dbc3"/>
    <path id="Tracé_23731" data-name="Tracé 23731" d="M205.99,76.256c0-.507-.12-1.013-.16-1.52-.04-.935-.08-1.442-.08-1.442h-.04a15.6,15.6,0,0,0-30.519.351c-13.92,66.313-69.2,63.664-69.2,63.664s-55.279,2.649-69.159-63.664A15.4,15.4,0,0,0,21.554,61.1,15.442,15.442,0,0,0,6.314,73.3h-.08s-.04.507-.08,1.442c-.04.507-.16,1.013-.16,1.52h.08c-.44,11.416-.12,53.261,26.559,72.82,31.079,22.754,34.159,24,34.159,24s16.92,14.065,16.76,26.143c-.12,9.818,4.28,22.481,22.4,23.494,18.12-1.013,22.52-13.676,22.4-23.494-.16-12.078,16.76-26.143,16.76-26.143s3.08-1.247,34.159-24c26.679-19.559,27-61.4,26.559-72.82Z" transform="translate(0 -15.286)" fill="#e5dbc3"/>
  </g>
</svg>
