<svg xmlns="http://www.w3.org/2000/svg" width="1900" height="499.7" viewBox="0 0 1900 499.7">
  <g id="LookBook" transform="translate(7 -3336.1)">
    <g id="Groupe_8" data-name="Groupe 8">
      <path id="Tracé_23787" data-name="Tracé 23787" d="M534.7,3833.8H254.1V3406.7h75.6v354.9h205Zm-275.6-5H529.7v-62.2h-205V3411.7H259.1Z"/>
    </g>
    <g id="Groupe_9" data-name="Groupe 9" opacity="0.6">
      <path id="Tracé_23788" data-name="Tracé 23788" d="M-7,3643.3v-304H43.9V3595H191.5v48.4H-7Z" fill="#998784"/>
      <path id="Tracé_23789" data-name="Tracé 23789" d="M205.7,3492a149.13,149.13,0,0,1,12.3-60,159.745,159.745,0,0,1,82.6-83.4,150.97,150.97,0,0,1,120.3,0,161.046,161.046,0,0,1,49.6,33.8,158.762,158.762,0,0,1,33.6,49.6,153.223,153.223,0,0,1,0,120.3,155.856,155.856,0,0,1-33.6,49.2,159.361,159.361,0,0,1-49.6,33.2,155.553,155.553,0,0,1-120.3,0,154.763,154.763,0,0,1-49.2-33.2,158.668,158.668,0,0,1-33.4-49.2A149.516,149.516,0,0,1,205.7,3492Zm51.3,0a106.616,106.616,0,0,0,8.1,41.5,104.2,104.2,0,0,0,22.5,33.8A106.855,106.855,0,0,0,321,3590a103.682,103.682,0,0,0,81.3,0,104.047,104.047,0,0,0,32.9-22.7,108.156,108.156,0,0,0,22.1-33.8,106.616,106.616,0,0,0,8.1-41.5,104.965,104.965,0,0,0-8.3-41.5,113.192,113.192,0,0,0-22.5-34,103.792,103.792,0,0,0-33.2-22.9,99.449,99.449,0,0,0-40.7-8.3,101,101,0,0,0-73.6,31.2,110.253,110.253,0,0,0-22.1,34A108.034,108.034,0,0,0,257,3492Z" fill="#998784"/>
      <path id="Tracé_23790" data-name="Tracé 23790" d="M546.4,3492a149.13,149.13,0,0,1,12.3-60,159.745,159.745,0,0,1,82.6-83.4,150.97,150.97,0,0,1,120.3,0,161.045,161.045,0,0,1,49.6,33.8,158.761,158.761,0,0,1,33.6,49.6,153.224,153.224,0,0,1,0,120.3,155.857,155.857,0,0,1-33.6,49.2,159.361,159.361,0,0,1-49.6,33.2,155.553,155.553,0,0,1-120.3,0,154.763,154.763,0,0,1-49.2-33.2,158.668,158.668,0,0,1-33.4-49.2A149.516,149.516,0,0,1,546.4,3492Zm51.2,0a106.617,106.617,0,0,0,8.1,41.5,104.2,104.2,0,0,0,22.5,33.8,106.854,106.854,0,0,0,33.4,22.7,103.682,103.682,0,0,0,81.3,0,104.048,104.048,0,0,0,32.9-22.7,108.156,108.156,0,0,0,22.1-33.8A106.616,106.616,0,0,0,806,3492a104.965,104.965,0,0,0-8.3-41.5,113.191,113.191,0,0,0-22.5-34,103.792,103.792,0,0,0-33.2-22.9,99.449,99.449,0,0,0-40.7-8.3,101,101,0,0,0-73.6,31.2,107.96,107.96,0,0,0-30.1,75.5Z" fill="#998784"/>
      <path id="Tracé_23791" data-name="Tracé 23791" d="M1085.1,3643.3c-9.7-11.9-18.8-23.5-27.1-34.6s-16.7-22.2-25-33.2-16.8-22.1-25.2-33.4c-8.5-11.3-17.4-23-26.9-35.2-3.1,3.3-6,6.3-8.8,9-2.8,2.6-5.7,5.4-8.8,8.1v119.3H907v-304h56.3v109.3a59.617,59.617,0,0,1-.4,7.1c-.3,2.5-.6,5-.8,7.5a37.694,37.694,0,0,1,4.4-5.2,33.082,33.082,0,0,0,4.4-5.6c18.9-18.1,37-36.8,54.4-56.3s35.5-38.4,54.4-56.7h64.6c-20.8,22-41.6,44.2-62.1,66.7q-30.9,33.75-61.7,66.3c11.7,15,22.7,29.6,33.2,43.8,10.4,14.2,20.8,28.1,31.1,41.9s20.6,27.7,31.1,41.7c10.4,14,21.3,28.6,32.7,43.6h-63.5Z" fill="#998784"/>
    </g>
    <g id="Groupe_10" data-name="Groupe 10" opacity="0.6">
      <path id="Tracé_23792" data-name="Tracé 23792" d="M722,3832.3v-304h83a178.085,178.085,0,0,1,40.9,4.4c12.2,2.9,22.7,7.5,31.3,13.8a61.475,61.475,0,0,1,19.8,24.6c4.6,10.2,6.9,22.3,6.9,36.5a112.752,112.752,0,0,1-2.3,22.7,69.141,69.141,0,0,1-7.5,20.4,59.677,59.677,0,0,1-13.6,16.5,57.426,57.426,0,0,1-20.9,10.8,95.36,95.36,0,0,1,21.1,7.1,64.168,64.168,0,0,1,32.6,34.9c3.5,8.5,5.2,18.4,5.2,29.8,0,14.7-2.9,27.3-8.5,37.7a75.253,75.253,0,0,1-22.5,25.6,94.378,94.378,0,0,1-32.3,14.6,153.664,153.664,0,0,1-37.9,4.6H722Zm50.9-257.7v82.6h38.4c14.2,0,24.7-4.2,31.5-12.5s10.2-18.3,10.2-30c0-13.6-4.2-23.7-12.5-30.2s-19.6-9.8-33.8-9.8H772.9Zm0,126v85.5h40a81.78,81.78,0,0,0,21.3-2.7,55.006,55.006,0,0,0,17.5-7.9,36.527,36.527,0,0,0,11.7-13.3,40.642,40.642,0,0,0,4.2-19c0-8.1-1.7-14.8-5-20.2a38.784,38.784,0,0,0-13.3-13.1,59.89,59.89,0,0,0-19-7.1,112.951,112.951,0,0,0-21.9-2.1H772.9Z" fill="#998784"/>
      <path id="Tracé_23793" data-name="Tracé 23793" d="M950.1,3681a149.13,149.13,0,0,1,12.3-60,159.745,159.745,0,0,1,82.6-83.4,150.97,150.97,0,0,1,120.3,0,161.045,161.045,0,0,1,49.6,33.8,158.762,158.762,0,0,1,33.6,49.6,153.223,153.223,0,0,1,0,120.3,155.856,155.856,0,0,1-33.6,49.2,159.36,159.36,0,0,1-49.6,33.2,155.553,155.553,0,0,1-120.3,0,154.763,154.763,0,0,1-49.2-33.2,158.668,158.668,0,0,1-33.4-49.2A149.171,149.171,0,0,1,950.1,3681Zm51.3,0a106.617,106.617,0,0,0,8.1,41.5,104.2,104.2,0,0,0,22.5,33.8,106.853,106.853,0,0,0,33.4,22.7,103.682,103.682,0,0,0,81.3,0,104.048,104.048,0,0,0,32.9-22.7,108.156,108.156,0,0,0,22.1-33.8,106.616,106.616,0,0,0,8.1-41.5,104.965,104.965,0,0,0-8.3-41.5,113.191,113.191,0,0,0-22.5-34,103.792,103.792,0,0,0-33.2-22.9,99.448,99.448,0,0,0-40.7-8.3,101,101,0,0,0-73.6,31.2,110.252,110.252,0,0,0-22.1,34A108.033,108.033,0,0,0,1001.4,3681Z" fill="#998784"/>
      <path id="Tracé_23794" data-name="Tracé 23794" d="M1290.8,3681a149.129,149.129,0,0,1,12.3-60,159.745,159.745,0,0,1,82.6-83.4,150.97,150.97,0,0,1,120.3,0,161.045,161.045,0,0,1,49.6,33.8,158.762,158.762,0,0,1,33.6,49.6,153.223,153.223,0,0,1,0,120.3,155.856,155.856,0,0,1-33.6,49.2,159.36,159.36,0,0,1-49.6,33.2,155.553,155.553,0,0,1-120.3,0,154.762,154.762,0,0,1-49.2-33.2,158.669,158.669,0,0,1-33.4-49.2A149.169,149.169,0,0,1,1290.8,3681Zm51.3,0a106.616,106.616,0,0,0,8.1,41.5,104.2,104.2,0,0,0,22.5,33.8,106.853,106.853,0,0,0,33.4,22.7,103.682,103.682,0,0,0,81.3,0,104.048,104.048,0,0,0,32.9-22.7,108.156,108.156,0,0,0,22.1-33.8,106.616,106.616,0,0,0,8.1-41.5,104.965,104.965,0,0,0-8.3-41.5,113.191,113.191,0,0,0-22.5-34,103.792,103.792,0,0,0-33.2-22.9,99.448,99.448,0,0,0-40.7-8.3,101,101,0,0,0-73.6,31.2,110.252,110.252,0,0,0-22.1,34A108.035,108.035,0,0,0,1342.1,3681Z" fill="#998784"/>
      <path id="Tracé_23795" data-name="Tracé 23795" d="M1829.5,3832.3c-9.7-11.9-18.8-23.5-27.1-34.6s-16.7-22.2-25-33.2-16.8-22.1-25.2-33.4c-8.5-11.3-17.4-23-26.9-35.2-3.1,3.3-6,6.3-8.8,9-2.8,2.6-5.7,5.4-8.8,8.1v119.3h-56.3v-304h56.3v109.3a59.617,59.617,0,0,1-.4,7.1c-.3,2.5-.6,5-.8,7.5a37.7,37.7,0,0,1,4.4-5.2,33.082,33.082,0,0,0,4.4-5.6c18.9-18.1,37-36.8,54.4-56.3s35.5-38.4,54.4-56.7h64.6c-20.8,22-41.6,44.2-62.1,66.7q-30.9,33.75-61.7,66.3c11.7,15,22.7,29.6,33.2,43.8,10.4,14.2,20.8,28.1,31.1,41.9s20.6,27.7,31.1,41.7c10.4,14,21.3,28.6,32.7,43.6h-63.5Z" fill="#998784"/>
    </g>
  </g>
</svg>
