<svg xmlns="http://www.w3.org/2000/svg" width="40" height="40" viewBox="0 0 40 40">
  <path id="Vetements" d="M37.07,3.71A17.054,17.054,0,0,0,26.667,0H13.333a17.051,17.051,0,0,0-10.4,3.712A7.482,7.482,0,0,0,0,9.662V27.5A7.509,7.509,0,0,0,7.5,35H8.762a7.513,7.513,0,0,0,7.072,5h8.333a7.513,7.513,0,0,0,7.072-5H32.5A7.509,7.509,0,0,0,40,27.5V9.662A7.491,7.491,0,0,0,37.07,3.71ZM35,27.5A2.5,2.5,0,0,1,32.5,30h-.833V14.167a2.5,2.5,0,0,0-5,0V32.5a2.5,2.5,0,0,1-2.5,2.5H15.833a2.5,2.5,0,0,1-2.5-2.5V14.167a2.5,2.5,0,0,0-5,0V30H7.5A2.5,2.5,0,0,1,5,27.5V9.662a2.512,2.512,0,0,1,.992-2A12.094,12.094,0,0,1,13.333,5h.447A7.47,7.47,0,0,0,26.22,5h.447a12.108,12.108,0,0,1,7.342,2.663,2.518,2.518,0,0,1,.992,2Z" fill="#e5dbc2"/>
</svg>
