<svg xmlns="http://www.w3.org/2000/svg" width="586.8" height="528.9" viewBox="0 0 586.8 528.9">
  <g id="Apropos" transform="translate(-95 -1398.6)">
    <g id="Groupe_4" data-name="Groupe 4">
      <path id="Tracé_23768" data-name="Tracé 23768" d="M480.8,1927.5H405.2l-.6-1.5c-1.1-2.6-3-7-6.1-14.5-2.6-6.3-5.9-14.1-10.7-25.5-4.2-10-8.9-21.2-13.9-33.3-4.8-11.7-9.8-23.8-15-36.4h-142l-46.3,111.2H95l1.6-3.5c1.6-3.7,5.5-12.8,11-25.7,6-14.2,13.3-31.3,21.7-51,8.7-20.3,18.3-42.8,28.9-67.7,10.7-25.1,21.7-50.7,32.7-76.2,10.7-24.8,21.7-50.4,32.7-76.1,9.9-23.3,19.7-46.1,29-67.7,8.7-20.3,16-37.5,21.7-50.9,6.1-14.5,9.5-22.4,11-25.8l.5-1.1h-8l-.7-.8c-12.1-12.9-24.2-25.9-35.9-38.8-11.8-12.9-23.7-26.2-35.3-39.4l-3.7-4.2h66.5l.7,1.1c8.9,13.1,17.7,26.3,26.6,39.4s17.8,26.1,26.6,38.8l2.7,3.9h-36l.5,1.1c1.5,3.5,5.3,12.1,11.3,25.8,6.2,14.2,13.6,31.3,22,51,8.7,20.3,18.3,42.8,29,67.7,10.9,25.6,21.9,51.2,32.7,76.1,11,25.4,22,51,32.7,76.2,9.9,23.2,19.6,46,28.9,67.7,8.4,19.7,15.7,36.8,21.7,51,5.9,13.9,9.5,22.3,11,25.7Zm-72.3-5h64.6c-1.9-4.5-5.1-11.8-9.5-22.3-6-14.2-13.3-31.3-21.7-50.9-9.3-21.8-19.1-44.6-29-67.7-10.7-25.1-21.7-50.7-32.7-76.1-10.8-24.9-21.8-50.5-32.7-76.2-10.6-24.9-20.3-47.5-28.9-67.7-8.4-19.6-15.8-36.7-22-50.9-4-9.1-7-15.9-9-20.5-1.9,4.5-4.8,11.2-8.7,20.5-5.7,13.5-13,30.6-21.7,51-9.3,21.7-19,44.5-28.9,67.7-11,25.7-22,51.3-32.7,76.2-11,25.4-22,51.1-32.7,76.1q-15.9,37.35-29,67.7c-8.4,19.6-15.7,36.8-21.7,50.9-4.2,9.9-7.4,17.6-9.5,22.3h64.6l46.3-111.2H362.3l.6,1.5c5.4,13.1,10.6,25.8,15.6,37.9s9.7,23.3,13.9,33.3c4.8,11.4,8.1,19.2,10.7,25.5C405.6,1915.6,407.4,1919.8,408.5,1922.5ZM280,1476.7h35.8c-7.9-11.4-16-23.1-23.9-34.9-8.6-12.8-17.3-25.5-25.9-38.3H213.2c10.5,11.8,21.1,23.7,31.6,35.2C256.4,1451.3,268.2,1464.1,280,1476.7Zm59.4,280H235.8l43.6-103.9c.2-.8.7-2.6,2.4-7.9a130.852,130.852,0,0,0,3.4-12.8h4.9a112.808,112.808,0,0,0,3.4,12.8,53.145,53.145,0,0,0,2.5,7l.2.2Zm-96.1-5h88.6l-40.1-97c-.5-.7-1.2-2.5-3.1-8.3-.4-1.2-.8-2.4-1.1-3.5-.3,1.2-.7,2.3-1.1,3.6-1.7,5.4-2.1,6.8-2.2,7.2v.3Zm41-98.3Z"/>
    </g>
    <g id="Groupe_5" data-name="Groupe 5">
      <path id="Tracé_23769" data-name="Tracé 23769" d="M223.6,1785c-.3-.7-.8-1.9-1.6-3.7-.7-1.8-1.7-4-2.8-6.6s-2.3-5.4-3.6-8.6c-1.3-3.1-2.6-6.4-4-9.8H174.2l-11.9,28.6h-18c.4-.9,1.3-3.1,2.8-6.6s3.4-7.9,5.6-13.1,4.7-11,7.4-17.4,5.5-12.9,8.4-19.6,5.7-13.2,8.4-19.6,5.2-12.2,7.5-17.4c2.2-5.2,4.1-9.6,5.6-13.1s2.4-5.7,2.8-6.6c.4.9,1.4,3.1,2.9,6.6s3.4,7.9,5.7,13.1q3.3,7.8,7.5,17.4c2.7,6.4,5.5,12.9,8.4,19.6s5.7,13.2,8.4,19.6,5.2,12.2,7.5,17.4c2.2,5.2,4.1,9.6,5.6,13.1s2.4,5.7,2.8,6.6h-18Zm-51.2-134.9c3,3.4,6,6.8,9.1,10.1,3.1,3.4,6.2,6.7,9.2,10h10.7c-2.3-3.3-4.6-6.6-6.9-10s-4.6-6.8-6.9-10.1Zm8.1,90.9h24.7l-10.7-25.9a15.653,15.653,0,0,1-.7-2,28.951,28.951,0,0,1-.9-3.4c-.2,1-.5,2.1-.9,3.4a17.876,17.876,0,0,0-.6,2Z"/>
      <path id="Tracé_23770" data-name="Tracé 23770" d="M347.9,1753.6a35.233,35.233,0,0,1-2.4,13.2,32.214,32.214,0,0,1-6.8,10.5,29.107,29.107,0,0,1-10.5,6.9,36.315,36.315,0,0,1-13.4,2.5,27.855,27.855,0,0,1-12.9-2.8c-3.7-1.8-6.3-3.8-7.7-5.9a3.749,3.749,0,0,0,.1,1.1c0,.3.1.8.1,1.3v35H280.1v-93.7h13.7a29.663,29.663,0,0,0,.3,4.2,27.692,27.692,0,0,1,.3,3.9,22.79,22.79,0,0,1,3.1-3.2,22.249,22.249,0,0,1,4.5-3.1,41.663,41.663,0,0,1,6-2.4,28.172,28.172,0,0,1,7.4-1,37.484,37.484,0,0,1,13.3,2.3,27.482,27.482,0,0,1,10.2,6.7,31.737,31.737,0,0,1,6.6,10.6A37.492,37.492,0,0,1,347.9,1753.6Zm-15.5-.3q0-8.4-4.8-13.8t-13.5-5.4a22.2,22.2,0,0,0-7.9,1.4,18.379,18.379,0,0,0-6.2,4,19.834,19.834,0,0,0-4.1,6.1,18.605,18.605,0,0,0-1.5,7.5,19.23,19.23,0,0,0,1.5,7.7,20.3,20.3,0,0,0,4.1,6.2,19.161,19.161,0,0,0,6.2,4.1,20.222,20.222,0,0,0,7.9,1.5,18.56,18.56,0,0,0,7.7-1.5,15.144,15.144,0,0,0,5.7-4.2,21.035,21.035,0,0,0,3.6-6.2A19.859,19.859,0,0,0,332.4,1753.3Z"/>
      <path id="Tracé_23771" data-name="Tracé 23771" d="M397,1738.5a30.251,30.251,0,0,0-8,1,20.8,20.8,0,0,0-6.7,3.2,16.414,16.414,0,0,0-4.7,5.4,14.871,14.871,0,0,0-1.8,7.5V1785H361.5v-63.3H374c.2,3.6.4,6.5.7,8.7.2,2.2.5,4.7.7,7.5a25.872,25.872,0,0,1,5.2-7.5,43.916,43.916,0,0,1,6.8-5.6,38.029,38.029,0,0,1,6.9-3.6,18.666,18.666,0,0,1,5.8-1.3Z"/>
      <path id="Tracé_23772" data-name="Tracé 23772" d="M404.6,1753.3a32.666,32.666,0,0,1,2.6-12.9,31.733,31.733,0,0,1,7.2-10.5,36.163,36.163,0,0,1,10.8-7.1,35.062,35.062,0,0,1,26.5,0,30.938,30.938,0,0,1,10.5,7.1,34.191,34.191,0,0,1,6.9,10.5,32.6,32.6,0,0,1,2.5,12.9,33.447,33.447,0,0,1-2.5,13,31.763,31.763,0,0,1-6.9,10.7,32.9,32.9,0,0,1-24,9.8,35.458,35.458,0,0,1-13.1-2.4,31.507,31.507,0,0,1-10.7-6.8,33.137,33.137,0,0,1-7.2-10.6A36.318,36.318,0,0,1,404.6,1753.3Zm14.2.1a18.605,18.605,0,0,0,1.5,7.5,19.1,19.1,0,0,0,10.2,10.2,19.5,19.5,0,0,0,15,0,19.836,19.836,0,0,0,6.1-4.1,22.062,22.062,0,0,0,4.2-6.1,18.662,18.662,0,0,0,1.6-7.5,17.124,17.124,0,0,0-1.6-7.5,18.484,18.484,0,0,0-4.2-6.1,22.062,22.062,0,0,0-6.1-4.2,18.662,18.662,0,0,0-7.5-1.6,17.124,17.124,0,0,0-7.5,1.6,18.487,18.487,0,0,0-6.1,4.2,19.834,19.834,0,0,0-4.1,6.1A18.6,18.6,0,0,0,418.8,1753.4Z"/>
      <path id="Tracé_23773" data-name="Tracé 23773" d="M553,1753.6a35.233,35.233,0,0,1-2.4,13.2,32.214,32.214,0,0,1-6.8,10.5,29.107,29.107,0,0,1-10.5,6.9,36.315,36.315,0,0,1-13.4,2.5,27.855,27.855,0,0,1-12.9-2.8c-3.7-1.8-6.3-3.8-7.7-5.9a3.749,3.749,0,0,0,.1,1.1c0,.3.1.8.1,1.3v35H485.2v-93.7H499a29.663,29.663,0,0,0,.3,4.2,27.692,27.692,0,0,1,.3,3.9,22.79,22.79,0,0,1,3.1-3.2,22.249,22.249,0,0,1,4.5-3.1,41.664,41.664,0,0,1,6-2.4,28.172,28.172,0,0,1,7.4-1,37.484,37.484,0,0,1,13.3,2.3,27.481,27.481,0,0,1,10.2,6.7,31.736,31.736,0,0,1,6.6,10.6A37.533,37.533,0,0,1,553,1753.6Zm-15.4-.3q0-8.4-4.8-13.8t-13.5-5.4a22.2,22.2,0,0,0-7.9,1.4,18.379,18.379,0,0,0-6.2,4,19.834,19.834,0,0,0-4.1,6.1,18.605,18.605,0,0,0-1.5,7.5,19.23,19.23,0,0,0,1.5,7.7,20.3,20.3,0,0,0,4.1,6.2,19.161,19.161,0,0,0,6.2,4.1,20.222,20.222,0,0,0,7.9,1.5,18.56,18.56,0,0,0,7.7-1.5,15.144,15.144,0,0,0,5.7-4.2,21.034,21.034,0,0,0,3.6-6.2A22.1,22.1,0,0,0,537.6,1753.3Z"/>
      <path id="Tracé_23774" data-name="Tracé 23774" d="M562.7,1753.3a32.667,32.667,0,0,1,2.6-12.9,31.732,31.732,0,0,1,7.2-10.5,36.163,36.163,0,0,1,10.8-7.1,35.062,35.062,0,0,1,26.5,0,30.938,30.938,0,0,1,10.5,7.1,34.191,34.191,0,0,1,6.9,10.5,32.6,32.6,0,0,1,2.5,12.9,33.447,33.447,0,0,1-2.5,13,31.763,31.763,0,0,1-6.9,10.7,32.9,32.9,0,0,1-24,9.8,35.458,35.458,0,0,1-13.1-2.4,31.508,31.508,0,0,1-10.7-6.8,33.137,33.137,0,0,1-7.2-10.6A36.317,36.317,0,0,1,562.7,1753.3Zm14.2.1a18.605,18.605,0,0,0,1.5,7.5,19.1,19.1,0,0,0,10.2,10.2,19.5,19.5,0,0,0,15,0,19.835,19.835,0,0,0,6.1-4.1,22.063,22.063,0,0,0,4.2-6.1,18.662,18.662,0,0,0,1.6-7.5,17.124,17.124,0,0,0-1.6-7.5,18.485,18.485,0,0,0-4.2-6.1,22.062,22.062,0,0,0-6.1-4.2,18.662,18.662,0,0,0-7.5-1.6,17.124,17.124,0,0,0-7.5,1.6,18.486,18.486,0,0,0-6.1,4.2,19.834,19.834,0,0,0-4.1,6.1A18.6,18.6,0,0,0,576.9,1753.4Z"/>
      <path id="Tracé_23775" data-name="Tracé 23775" d="M679.4,1727.3c-.6.9-1.3,1.9-2.2,3.1-.8,1.1-1.7,2.2-2.5,3.2s-1.7,2.2-2.8,3.7a17.055,17.055,0,0,0-2.9-1.6,18.154,18.154,0,0,0-3.3-1.1,15.825,15.825,0,0,0-3.8-.5,10.383,10.383,0,0,0-4.4,1,3.856,3.856,0,0,0-2.3,3.9,5.307,5.307,0,0,0,2,4.2,22.912,22.912,0,0,0,4.9,3.1c1.9.9,4.1,1.9,6.4,2.9a28.892,28.892,0,0,1,6.4,3.7,20.4,20.4,0,0,1,4.9,5.6,16.185,16.185,0,0,1,2,8.3,18.6,18.6,0,0,1-1.6,7.9,17.017,17.017,0,0,1-4.5,6.1,21.228,21.228,0,0,1-6.9,4,25.923,25.923,0,0,1-9.1,1.5,33.731,33.731,0,0,1-11.8-2.1,20.991,20.991,0,0,1-9-6c.7-.8,1.5-1.8,2.5-3s1.9-2.3,2.8-3.4,2-2.4,3.3-3.9c0-.1.3.1,1,.5.6.4,1.5,1,2.6,1.6a24.205,24.205,0,0,0,3.9,1.6,14.264,14.264,0,0,0,4.6.7c2.5,0,4.4-.5,5.7-1.6a5.067,5.067,0,0,0,2-4,4.744,4.744,0,0,0-2-3.9,27.576,27.576,0,0,0-4.9-2.8c-1.9-.8-4.1-1.8-6.4-2.8a28.892,28.892,0,0,1-6.4-3.7,19.462,19.462,0,0,1-4.9-5.7,21.286,21.286,0,0,1-.1-17.8,17.687,17.687,0,0,1,5-5.8,18.4,18.4,0,0,1,6.6-3.2,28.843,28.843,0,0,1,7-1,26.02,26.02,0,0,1,9.6,1.9A24.776,24.776,0,0,1,679.4,1727.3Z"/>
    </g>
  </g>
</svg>
